# xmcd
#
# Track frame offsets:
# 182
# 7327
# 28540
# 48267
# 67842
# 83370
# 101152
# 119795
# 141277
# 159172
# 177492
# 191925
# 208250
# 230605
# 244912
# 259392
# 274545
# 293292
# 308355
# 327250
#
# Disc length: 4656 seconds
#
#
# Revision: 4
# Processed by: cddbd v1.5.2PL0 Copyright (c) Steve Scherf et al.
# Submitted via: FreeRIP 2.96 
#
DISCID=1e122e14
DTITLE=Andrew Gold - Thank You For Being A Friend - The Best Of Andrew Gold
DYEAR=1900
DGENRE=Pop
TTITLE0=The Final Frontier (Theme From 'Mad About You')
TTITLE1=Thank You For Being A Friend
TTITLE2=Lonely Boy
TTITLE3=Oh Urania (Take Me Away)
TTITLE4=Never Let Her Slip Away
TTITLE5=How Can This Be Love
TTITLE6=You're Free
TTITLE7=Hope You Feel Good
TTITLE8=One Of Them Is Me
TTITLE9=Kiss This One Goodbye
TTITLE10=Go Back Home Again
TTITLE11=Looking For My Love
TTITLE12=Endless Flight
TTITLE13=That's Why I Love You
TTITLE14=Heartaches In Heartaches
TTITLE15=Firefly
TTITLE16=Passing Thing
TTITLE17=Still You Linger On
TTITLE18=Can Anybody See You
TTITLE19=The King Of Showbiz
EXTD=
EXTT0=
EXTT1=
EXTT2=
EXTT3=
EXTT4=
EXTT5=
EXTT6=
EXTT7=
EXTT8=
EXTT9=
EXTT10=
EXTT11=
EXTT12=
EXTT13=
EXTT14=
EXTT15=
EXTT16=
EXTT17=
EXTT18=
EXTT19=
PLAYORDER=
